<?xml version="1.0" standalone="no"?>
<!DOCTYPE svg PUBLIC "-//W3C//DTD SVG 20010904//EN"
 "http://www.w3.org/TR/2001/REC-SVG-20010904/DTD/svg10.dtd">
<svg version="1.0" xmlns="http://www.w3.org/2000/svg"
 width="2000.000000pt" height="2000.000000pt" viewBox="0 0 2000.000000 2000.000000"
 preserveAspectRatio="xMidYMid meet">
<metadata>
Created by potrace 1.11, written by Peter Selinger 2001-2013
</metadata>
<g transform="translate(0.000000,2000.000000) scale(0.100000,-0.100000)"
fill="#000000" stroke="none">
<path d="M11557 13833 c-4 -3 -7 -303 -7 -665 l0 -659 -37 -16 c-53 -21 -499
-172 -548 -184 -22 -6 -44 -14 -49 -20 -6 -5 -19 -9 -29 -9 -10 0 -33 -6 -50
-14 -18 -7 -106 -37 -197 -66 -212 -68 -454 -148 -482 -159 -13 -5 -178 -59
-368 -121 -190 -62 -361 -118 -380 -125 -19 -7 -51 -18 -70 -24 -19 -7 -53
-17 -75 -22 -22 -6 -44 -14 -49 -20 -6 -5 -18 -9 -28 -9 -9 0 -32 -6 -50 -14
-18 -8 -109 -39 -203 -70 -182 -59 -220 -72 -275 -91 -75 -27 -230 -75 -242
-75 -7 0 -25 -6 -40 -14 -15 -8 -41 -17 -59 -21 -19 -4 -40 -11 -49 -16 -8 -4
-71 -26 -140 -48 -144 -46 -178 -58 -300 -100 -19 -7 -53 -17 -75 -22 -22 -6
-44 -14 -50 -20 -5 -5 -18 -9 -30 -9 -11 0 -33 -7 -49 -15 -15 -8 -36 -15 -45
-15 -9 0 -28 -6 -43 -14 -15 -8 -42 -17 -60 -21 -18 -4 -64 -18 -103 -32 -38
-13 -83 -28 -100 -33 -16 -4 -46 -14 -65 -21 -19 -6 -51 -17 -70 -24 -19 -7
-51 -18 -70 -24 -19 -7 -53 -17 -75 -22 -22 -6 -44 -14 -50 -20 -5 -5 -18 -9
-28 -9 -10 0 -33 -6 -50 -14 -18 -7 -84 -30 -147 -50 -63 -21 -131 -43 -150
-50 -73 -27 -106 -38 -140 -46 -19 -4 -51 -14 -70 -20 -19 -7 -51 -18 -70 -25
-19 -7 -51 -18 -70 -24 -19 -7 -48 -17 -65 -21 -41 -12 -126 -40 -150 -50 -11
-5 -76 -26 -145 -49 -145 -47 -180 -58 -300 -100 -19 -7 -48 -16 -65 -21 -16
-5 -43 -13 -60 -19 -16 -6 -120 -40 -230 -76 -110 -35 -213 -69 -230 -76 -16
-6 -43 -14 -60 -19 -16 -5 -46 -14 -65 -21 -19 -6 -51 -17 -70 -24 -19 -7 -51
-18 -70 -24 -19 -7 -48 -17 -65 -21 -16 -5 -61 -19 -100 -33 -38 -13 -124 -41
-190 -62 -66 -21 -134 -44 -152 -51 -17 -8 -38 -14 -46 -14 -8 0 -28 -7 -43
-15 -16 -8 -37 -15 -46 -15 -10 0 -32 -6 -50 -14 -40 -16 -93 -35 -133 -46
-16 -5 -55 -18 -85 -28 l-55 -20 3 -48 c4 -73 32 -106 107 -125 16 -4 44 -12
60 -18 17 -6 201 -67 410 -136 209 -69 394 -130 410 -135 17 -6 80 -27 140
-47 61 -19 317 -104 570 -188 253 -83 663 -218 910 -300 248 -81 464 -154 482
-161 17 -8 38 -14 46 -14 8 0 28 -7 43 -15 16 -8 41 -15 55 -15 14 0 34 -7 45
-15 10 -8 29 -15 41 -15 12 0 37 -6 55 -14 38 -15 46 -18 273 -93 94 -30 184
-61 202 -69 17 -8 38 -14 47 -14 8 0 30 -6 48 -14 42 -17 94 -35 133 -46 17
-5 46 -14 65 -21 19 -6 51 -17 70 -24 19 -7 109 -36 200 -65 91 -29 179 -59
197 -66 17 -8 39 -14 48 -14 9 0 26 -5 38 -12 12 -6 35 -15 52 -19 16 -4 46
-13 65 -20 19 -6 51 -17 70 -24 19 -7 51 -18 70 -24 19 -7 49 -17 65 -21 54
-16 130 -41 145 -49 9 -5 31 -12 50 -16 19 -4 41 -11 50 -15 8 -4 258 -88 555
-185 297 -98 556 -183 575 -190 88 -31 107 -37 135 -44 17 -4 40 -13 52 -19
12 -7 30 -12 40 -12 10 0 30 -6 45 -14 15 -8 42 -17 60 -21 18 -4 38 -11 43
-15 6 -4 26 -11 45 -15 19 -4 40 -11 45 -15 6 -4 25 -11 43 -15 18 -4 45 -13
60 -21 15 -8 35 -14 45 -14 10 0 28 -5 40 -12 12 -6 35 -15 52 -19 16 -4 46
-13 65 -20 19 -6 51 -17 70 -24 19 -7 130 -43 245 -80 116 -38 224 -74 242
-82 17 -7 36 -13 41 -13 6 0 18 -7 26 -16 14 -14 16 -90 16 -684 0 -574 2
-669 15 -673 13 -6 99 20 172 50 17 7 38 13 46 13 8 0 28 7 43 15 16 8 37 15
46 15 10 0 32 6 50 14 41 17 93 35 133 46 17 5 102 33 190 63 88 30 194 64
235 77 41 12 82 25 90 29 8 4 49 18 90 30 41 13 91 29 110 36 19 8 127 44 240
81 113 37 219 73 237 80 17 8 38 14 46 14 8 0 28 7 43 15 16 8 37 15 46 15 10
0 32 6 50 14 18 8 269 92 558 187 289 95 755 248 1035 341 281 94 528 173 550
177 l40 7 0 74 0 75 -1948 0 c-1717 0 -1949 2 -1957 15 -6 9 -10 598 -10 1530
-1 833 -1 1960 -2 2503 0 747 2 991 11 1000 9 9 464 11 1925 9 1053 -2 1916 0
1919 5 2 4 8 38 11 75 l7 66 -47 21 c-25 12 -52 21 -60 21 -7 0 -241 76 -521
168 -590 196 -1541 510 -1693 559 -58 18 -114 37 -125 42 -42 17 -91 33 -130
42 -22 6 -44 14 -50 20 -5 5 -18 9 -30 9 -11 0 -32 6 -47 14 -15 8 -41 17 -59
21 -19 4 -40 11 -49 16 -8 4 -51 19 -95 33 -81 25 -122 39 -185 61 -19 7 -62
21 -95 30 -33 10 -74 23 -90 30 -17 7 -46 16 -65 20 -19 4 -39 11 -45 15 -5 4
-26 11 -45 15 -19 4 -39 11 -45 15 -5 4 -26 11 -45 15 -19 4 -39 11 -45 15 -5
4 -25 11 -43 15 -18 4 -45 13 -60 21 -15 8 -36 14 -47 14 -12 0 -25 4 -30 9
-6 6 -28 14 -50 20 -44 10 -93 27 -143 47 -35 15 -65 18 -75 7z m262 -224 c36
-11 73 -24 81 -29 9 -4 31 -11 50 -15 19 -4 40 -11 45 -15 6 -4 25 -11 43 -15
18 -4 45 -13 60 -21 15 -8 34 -14 43 -14 9 0 30 -7 45 -15 16 -8 37 -15 47
-15 10 0 28 -5 40 -12 12 -6 35 -15 52 -19 16 -4 46 -13 65 -20 19 -6 51 -17
70 -24 19 -7 109 -36 200 -65 91 -29 179 -59 197 -66 17 -8 40 -14 50 -14 10
0 23 -4 28 -9 6 -6 28 -14 50 -20 22 -5 56 -15 75 -22 19 -6 51 -17 70 -24 19
-7 51 -18 70 -24 19 -7 49 -17 65 -21 17 -5 89 -28 160 -53 72 -24 387 -129
700 -232 314 -103 586 -193 605 -200 90 -32 108 -37 145 -46 21 -6 44 -14 50
-19 5 -4 27 -11 48 -15 45 -9 54 -20 28 -34 -21 -12 -3256 -16 -3285 -5 -14 6
-16 63 -16 548 0 299 3 546 7 549 11 12 44 8 112 -14z m-280 -1278 c11 -7 13
-184 13 -1057 -1 -577 -1 -1689 -1 -2470 -1 -1387 -1 -1422 -20 -1427 -10 -2
-32 1 -47 8 -16 7 -105 38 -199 69 -227 74 -235 76 -273 92 -18 8 -40 14 -50
14 -9 0 -30 7 -46 15 -15 8 -34 15 -41 15 -8 0 -242 76 -522 168 -279 93 -751
249 -1048 346 -297 98 -556 184 -575 191 -74 26 -106 37 -135 45 -39 11 -91
29 -133 46 -18 8 -40 14 -50 14 -9 0 -30 7 -46 15 -15 8 -35 15 -43 15 -8 0
-29 6 -46 14 -18 8 -88 32 -157 54 -127 42 -167 55 -230 77 -19 7 -62 20 -95
30 -33 9 -74 23 -90 30 -17 7 -46 16 -65 20 -19 4 -39 11 -45 15 -5 4 -25 11
-43 15 -18 4 -45 13 -60 21 -15 8 -34 14 -43 14 -9 0 -30 7 -45 15 -16 8 -36
15 -45 15 -9 0 -30 7 -45 15 -16 8 -37 15 -46 15 -10 0 -32 6 -50 14 -18 7
-49 19 -68 25 -19 6 -109 36 -200 66 -91 31 -259 87 -375 126 -115 38 -227 74
-248 80 -21 5 -45 13 -55 18 -16 9 -356 123 -417 141 -16 4 -43 13 -60 19 -28
10 -881 292 -1215 401 -85 28 -171 57 -190 64 -63 23 -104 38 -135 46 -81 22
-205 72 -200 80 3 4 37 18 77 30 40 13 105 34 143 47 39 14 84 28 100 32 17 4
40 13 52 19 12 7 29 12 38 12 9 0 31 6 48 14 18 7 129 45 247 84 291 96 296
98 390 132 19 6 51 16 70 20 43 11 219 69 240 80 9 4 31 11 50 15 19 4 41 11
50 15 15 9 180 64 235 80 17 4 46 14 65 21 107 37 142 49 285 96 527 173 1166
384 1190 394 17 6 44 14 60 19 39 11 91 29 133 46 18 8 40 14 50 14 9 0 30 7
46 15 15 8 35 15 43 15 8 0 29 6 46 14 18 8 88 32 157 54 147 48 182 60 300
101 19 7 53 17 75 22 22 5 49 13 60 18 11 5 72 26 135 47 63 20 123 40 132 45
10 5 34 13 55 18 21 5 54 15 73 22 19 6 51 17 70 24 19 7 51 18 70 24 19 7 49
17 65 21 54 16 130 41 145 49 9 5 31 12 50 16 19 4 40 10 45 14 6 4 44 18 85
30 77 24 1077 354 1140 376 89 31 107 37 135 45 55 16 220 71 235 80 9 4 31
11 50 15 19 4 41 11 50 16 15 8 91 33 145 49 40 11 93 30 133 46 18 8 39 14
47 14 8 0 29 7 47 15 18 8 87 30 153 50 66 20 127 40 135 45 19 11 22 11 39 1z
m3466 -5185 c0 -7 -236 -92 -320 -115 -50 -14 -409 -132 -425 -141 -9 -4 -31
-11 -50 -15 -19 -4 -40 -11 -45 -16 -6 -4 -29 -12 -50 -18 -36 -8 -135 -41
-220 -72 -16 -6 -43 -15 -60 -19 -16 -5 -64 -20 -105 -34 -41 -14 -313 -105
-605 -201 -291 -96 -564 -187 -605 -201 -41 -14 -88 -29 -105 -34 -40 -11 -92
-29 -133 -46 -18 -8 -40 -14 -50 -14 -9 0 -30 -7 -46 -15 -15 -8 -36 -15 -45
-15 -9 0 -28 -6 -43 -14 -15 -8 -41 -17 -59 -21 -19 -4 -40 -11 -49 -15 -39
-21 -243 -81 -263 -78 l-22 3 -3 535 c-1 294 0 541 3 548 3 10 339 12 1652 10
937 -2 1648 -7 1648 -12z"/>
<path d="M12427 11408 c-12 -19 -14 -295 -13 -1758 l1 -1735 260 0 260 0 3
688 c2 539 5 687 15 688 39 4 686 5 705 1 13 -3 26 -12 30 -21 3 -9 34 -64 69
-123 35 -59 63 -109 63 -112 0 -3 18 -36 41 -72 22 -37 45 -77 50 -88 5 -12
13 -28 19 -36 21 -33 100 -172 100 -177 0 -3 23 -42 50 -88 28 -46 50 -86 50
-89 0 -4 12 -25 27 -49 15 -23 37 -60 49 -82 11 -22 31 -56 42 -75 12 -19 26
-45 31 -57 6 -12 21 -39 34 -60 27 -43 91 -159 120 -216 l19 -37 292 2 c274 3
291 4 288 21 -2 10 -38 78 -81 150 -42 73 -80 139 -84 147 -4 8 -17 31 -28 50
-12 19 -55 94 -96 165 -42 72 -106 182 -143 245 -37 63 -70 122 -74 130 -3 8
-15 29 -26 45 -11 17 -23 37 -27 45 -4 8 -41 74 -83 145 -42 72 -79 137 -83
145 -4 8 -16 29 -27 45 -11 17 -23 36 -26 43 -7 14 31 49 64 58 12 3 22 10 22
14 0 4 12 13 28 19 15 6 43 21 62 32 38 24 88 52 201 116 41 23 98 56 127 74
l52 33 0 727 c0 655 -2 728 -16 740 -22 18 -53 36 -86 50 -16 6 -28 15 -28 20
0 5 -5 9 -11 9 -6 0 -48 22 -93 49 -44 26 -88 51 -96 55 -8 3 -28 15 -45 26
-16 11 -37 23 -45 27 -8 4 -48 26 -88 50 l-74 43 -894 0 -894 0 -13 -22z
m1851 -470 c14 -14 18 -1143 4 -1152 -10 -6 -1331 -10 -1338 -4 -6 7 -5 1148
1 1158 10 16 1318 13 1333 -2z"/>
</g>
</svg>
